<svg xmlns="http://www.w3.org/2000/svg" xmlns:xlink="http://www.w3.org/1999/xlink" viewBox="0 0 179.35 147.52"><defs><style>.cls-1{fill:url(#linear-gradient);}.cls-2{fill:none;}.cls-3{fill:url(#linear-gradient-2);}.cls-4{opacity:0.3;fill:url(#linear-gradient-3);}.cls-5{fill:url(#linear-gradient-4);}.cls-6{fill:url(#linear-gradient-5);}.cls-7{fill:url(#linear-gradient-6);}.cls-8{fill:url(#linear-gradient-7);}.cls-9{fill:url(#linear-gradient-8);}.cls-10{fill:url(#linear-gradient-9);}.cls-11{fill:url(#linear-gradient-10);}.cls-12{fill:url(#linear-gradient-11);}.cls-13{fill:url(#linear-gradient-12);}.cls-14{fill:url(#linear-gradient-13);}.cls-15{fill:url(#linear-gradient-14);}.cls-16{fill:url(#linear-gradient-15);}.cls-17{fill:url(#linear-gradient-16);}.cls-18{fill:url(#linear-gradient-17);}</style><linearGradient id="linear-gradient" x1="65.99" y1="86.54" x2="139.98" y2="86.54" gradientUnits="userSpaceOnUse"><stop offset="0" stop-color="#eb1c24"/><stop offset="1" stop-color="#b20000"/></linearGradient><linearGradient id="linear-gradient-2" x1="66.33" y1="37.29" x2="90.49" y2="37.29" xlink:href="#linear-gradient"/><linearGradient id="linear-gradient-3" x1="71.57" y1="27.17" x2="85.77" y2="39.56" gradientUnits="userSpaceOnUse"><stop offset="0" stop-color="#231f20"/><stop offset="0.5" stop-color="#b20000"/><stop offset="1" stop-color="#231f20"/></linearGradient><linearGradient id="linear-gradient-4" x1="49.55" y1="16.35" x2="138.56" y2="16.35" xlink:href="#linear-gradient"/><linearGradient id="linear-gradient-5" x1="50.66" y1="63.99" x2="110.87" y2="63.99" xlink:href="#linear-gradient"/><linearGradient id="linear-gradient-6" x1="6.04" y1="114.52" x2="5.7" y2="131.54" xlink:href="#linear-gradient"/><linearGradient id="linear-gradient-7" x1="19.98" y1="114.8" x2="19.64" y2="131.82" xlink:href="#linear-gradient"/><linearGradient id="linear-gradient-8" x1="35.28" y1="115.11" x2="34.94" y2="132.13" xlink:href="#linear-gradient"/><linearGradient id="linear-gradient-9" x1="50.59" y1="115.41" x2="50.25" y2="132.44" xlink:href="#linear-gradient"/><linearGradient id="linear-gradient-10" x1="67.04" y1="115.74" x2="66.7" y2="132.76" xlink:href="#linear-gradient"/><linearGradient id="linear-gradient-11" x1="79.51" y1="115.99" x2="79.17" y2="133.01" xlink:href="#linear-gradient"/><linearGradient id="linear-gradient-12" x1="90.01" y1="116.2" x2="89.67" y2="133.22" xlink:href="#linear-gradient"/><linearGradient id="linear-gradient-13" x1="105.27" y1="116.51" x2="104.93" y2="133.53" xlink:href="#linear-gradient"/><linearGradient id="linear-gradient-14" x1="126.8" y1="116.94" x2="126.46" y2="133.96" xlink:href="#linear-gradient"/><linearGradient id="linear-gradient-15" x1="142.84" y1="117.26" x2="142.5" y2="134.28" xlink:href="#linear-gradient"/><linearGradient id="linear-gradient-16" x1="157.88" y1="117.56" x2="157.54" y2="134.58" xlink:href="#linear-gradient"/><linearGradient id="linear-gradient-17" x1="172.3" y1="117.85" x2="171.96" y2="134.87" xlink:href="#linear-gradient"/></defs><title>ECAsset 8mdpi</title><g id="Layer_2" data-name="Layer 2"><g id="Layer_1-2" data-name="Layer 1"><path d="M0,147.36v-8.47H2.83a3.47,3.47,0,0,1,2.31.75,2.72,2.72,0,0,1,0,4.08,3.47,3.47,0,0,1-2.31.75h-2v2.89Zm2.83-3.74a2.6,2.6,0,0,0,1.72-.54,1.73,1.73,0,0,0,.62-1.4,1.71,1.71,0,0,0-.62-1.39,2.6,2.6,0,0,0-1.72-.56h-2v3.89Z"/><path d="M2.83,139.19a3.15,3.15,0,0,1,2.11.69,2.41,2.41,0,0,1,0,3.6,3.15,3.15,0,0,1-2.11.68H.56v2.89H.31v-7.86Zm0,4.74a2.9,2.9,0,0,0,1.91-.61,2,2,0,0,0,.74-1.64,2,2,0,0,0-.74-1.63,2.85,2.85,0,0,0-1.91-.62H.56v4.5Z"/><path d="M11.28,147.52a4.4,4.4,0,1,1,0-8.8,4.4,4.4,0,0,1,0,8.8Zm0-7.94a3.55,3.55,0,0,0-3.53,3.54,3.46,3.46,0,0,0,1,2.51,3.38,3.38,0,0,0,2.5,1,3.54,3.54,0,0,0,2.49-6A3.33,3.33,0,0,0,11.28,139.58Z"/><path d="M11.28,139a4.09,4.09,0,0,1,2.88,7,3.89,3.89,0,0,1-2.88,1.19,4.09,4.09,0,0,1-2.9-7A4,4,0,0,1,11.28,139Zm0,7.94A3.68,3.68,0,0,0,14,145.85a3.73,3.73,0,0,0,1.12-2.73,3.86,3.86,0,0,0-3.83-3.85,3.71,3.71,0,0,0-2.72,1.14,3.68,3.68,0,0,0-1.12,2.71,3.73,3.73,0,0,0,1.12,2.73A3.69,3.69,0,0,0,11.28,147Z"/><polygon points="24.25 147.41 21.97 140.56 19.68 147.41 19 147.41 16.02 138.88 16.93 138.88 19.33 145.79 21.61 138.88 22.32 138.88 24.61 145.78 27 138.88 27.91 138.88 24.93 147.41 24.25 147.41"/><path d="M24.72,147.11h-.25L22,139.58l-2.51,7.53h-.24l-2.76-7.92h.25l2.62,7.57,2.51-7.57h.25l2.51,7.56,2.62-7.56h.26Z"/><polygon points="29.06 147.36 29.06 138.88 34.9 138.88 34.9 139.74 29.94 139.74 29.94 142.7 34.44 142.7 34.44 143.55 29.94 143.55 29.94 146.51 34.9 146.51 34.9 147.36 29.06 147.36"/><path d="M29.63,143h4.5v.23h-4.5v3.58h5v.23H29.37v-7.86h5.22v.24h-5Z"/><path d="M42.11,147.36l-2.78-3.12H37.41v3.12h-.88v-8.47h2.95a3.48,3.48,0,0,1,2.31.7,2.37,2.37,0,0,1,.92,2,2.58,2.58,0,0,1-2.28,2.59l2.88,3.21Zm-2.63-4c1.47,0,2.34-.68,2.34-1.83s-.87-1.83-2.34-1.83H37.41v3.66Z"/><path d="M37.1,143.93v3.12h-.26v-7.86h2.64a3.27,3.27,0,0,1,2.12.64,2.08,2.08,0,0,1,.8,1.73c0,1.39-1,2.25-2.59,2.36l2.81,3.13h-.37l-2.79-3.12Zm2.38-.23c1.61,0,2.65-.8,2.65-2.14s-1-2.13-2.65-2.13H37.1v4.27Z"/><polygon points="44.09 147.36 44.09 138.88 49.93 138.88 49.93 139.74 44.97 139.74 44.97 142.7 49.47 142.7 49.47 143.55 44.97 143.55 44.97 146.51 49.93 146.51 49.93 147.36 44.09 147.36"/><path d="M44.66,143h4.5v.23h-4.5v3.58h5v.23H44.4v-7.86h5.22v.24h-5Z"/><path d="M51.56,147.36v-8.47h2.83A4.47,4.47,0,0,1,57.56,140a4,4,0,0,1,1.22,3,4.15,4.15,0,0,1-1.22,3.12,4.37,4.37,0,0,1-3.17,1.19Zm2.83-.85a3.49,3.49,0,0,0,2.54-.94,3.34,3.34,0,0,0,1-2.52,3.08,3.08,0,0,0-1-2.39,3.54,3.54,0,0,0-2.55-.93h-2v6.78Z"/><path d="M54.39,139.19a4.11,4.11,0,0,1,3,1.07,3.62,3.62,0,0,1,1.13,2.79,3.83,3.83,0,0,1-1.13,2.9,4,4,0,0,1-3,1.1H51.87v-7.86Zm0,7.63a3.78,3.78,0,0,0,2.76-1,3.69,3.69,0,0,0,1.05-2.74,3.44,3.44,0,0,0-1.05-2.62,3.84,3.84,0,0,0-2.76-1H52.12v7.39Z"/><path d="M63.58,147.36v-8.47h3.29a3.06,3.06,0,0,1,2,.59,2,2,0,0,1,.8,1.62,2,2,0,0,1-1,1.81,2,2,0,0,1,1.41,2,2.13,2.13,0,0,1-.94,1.8,3.77,3.77,0,0,1-2.29.65Zm3.29-.85A2.82,2.82,0,0,0,68.6,146a1.31,1.31,0,0,0,.61-1.13c0-1.29-1.47-1.48-2.34-1.48H64.45v3.08Zm-.23-3.93c1,0,2.11-.26,2.11-1.48a1.18,1.18,0,0,0-.49-1,2.25,2.25,0,0,0-1.39-.4H64.45v2.85Z"/><path d="M69.79,144.91a1.83,1.83,0,0,1-.81,1.55,3.49,3.49,0,0,1-2.11.59h-3v-7.86h3a2.76,2.76,0,0,1,1.78.54,1.64,1.64,0,0,1,.68,1.37A1.82,1.82,0,0,1,67.76,143C69.08,143.19,69.79,143.86,69.79,144.91Zm-5.65-2h2.5c1.56,0,2.42-.65,2.42-1.79a1.47,1.47,0,0,0-.61-1.21,2.51,2.51,0,0,0-1.58-.46H64.14Zm2.73,3.93a3.25,3.25,0,0,0,1.91-.52,1.63,1.63,0,0,0,.74-1.39c0-1.14-1-1.79-2.65-1.79H64.14v3.7Z"/><polygon points="73.39 147.36 73.39 144.18 69.78 138.88 70.81 138.88 73.83 143.3 76.84 138.88 77.88 138.88 74.26 144.18 74.26 147.36 73.39 147.36"/><path d="M74,144.08v3H73.7v-3l-3.34-4.89h.29l3.18,4.66L77,139.19h.29Z"/><polygon points="81.77 147.36 81.77 138.88 87.61 138.88 87.61 139.74 82.64 139.74 82.64 142.7 87.15 142.7 87.15 143.55 82.64 143.55 82.64 146.51 87.61 146.51 87.61 147.36 81.77 147.36"/><path d="M82.33,143h4.51v.23H82.33v3.58h5v.23H82.08v-7.86H87.3v.24h-5Z"/><polygon points="91.14 147.36 91.14 139.74 88.02 139.74 88.02 138.88 95.14 138.88 95.14 139.74 92.02 139.74 92.02 147.36 91.14 147.36"/><path d="M91.71,139.43v7.62h-.26v-7.62H88.33v-.24h6.49v.24Z"/><polygon points="96.07 147.36 96.07 138.88 101.91 138.88 101.91 139.74 96.94 139.74 96.94 142.7 101.45 142.7 101.45 143.55 96.94 143.55 96.94 146.51 101.91 146.51 101.91 147.36 96.07 147.36"/><path d="M96.63,143h4.51v.23H96.63v3.58h5v.23H96.38v-7.86h5.22v.24h-5Z"/><path d="M109.11,147.36l-2.78-3.12h-1.92v3.12h-.87v-8.47h2.94a3.53,3.53,0,0,1,2.32.7,2.36,2.36,0,0,1,.91,2,2.57,2.57,0,0,1-2.27,2.59l2.88,3.21Zm-2.63-4c1.47,0,2.35-.68,2.35-1.83s-.88-1.83-2.35-1.83h-2.07v3.66Z"/><path d="M104.1,143.93v3.12h-.25v-7.86h2.63a3.3,3.3,0,0,1,2.13.64,2.07,2.07,0,0,1,.79,1.73c0,1.39-1,2.25-2.58,2.36l2.8,3.13h-.37l-2.78-3.12Zm2.38-.23c1.62,0,2.66-.8,2.66-2.14s-1-2.13-2.66-2.13H104.1v4.27Z"/><polygon points="117.31 147.36 111.97 140.43 111.97 147.36 111.1 147.36 111.1 138.88 111.87 138.88 117.22 145.82 117.22 138.88 118.09 138.88 118.09 147.36 117.31 147.36"/><path d="M117.78,147.05h-.32l-5.8-7.53v7.53h-.25v-7.86h.31l5.81,7.53v-7.53h.25Z"/><rect x="120.13" y="138.89" width="0.87" height="8.47"/><path d="M120.69,147.05h-.25v-7.86h.25Z"/><polygon points="125.17 147.36 125.17 139.74 122.05 139.74 122.05 138.88 129.16 138.88 129.16 139.74 126.04 139.74 126.04 147.36 125.17 147.36"/><path d="M125.73,139.43v7.62h-.25v-7.62h-3.12v-.24h6.49v.24Z"/><polygon points="132.46 147.36 132.46 144.18 128.84 138.88 129.88 138.88 132.89 143.3 135.91 138.88 136.94 138.88 133.33 144.18 133.33 147.36 132.46 147.36"/><path d="M133,144.08v3h-.26v-3l-3.33-4.89h.28l3.18,4.66,3.18-4.66h.29Z"/><path d="M146.41,147.36l-2.78-3.12h-1.92v3.12h-.88v-8.47h2.95a3.53,3.53,0,0,1,2.32.7,2.39,2.39,0,0,1,.91,2,2.58,2.58,0,0,1-2.28,2.59l2.88,3.21Zm-2.63-4c1.47,0,2.34-.68,2.34-1.83s-.87-1.83-2.34-1.83h-2.07v3.66Z"/><path d="M141.4,143.93v3.12h-.26v-7.86h2.64a3.27,3.27,0,0,1,2.12.64,2.08,2.08,0,0,1,.8,1.73c0,1.39-1,2.25-2.59,2.36l2.81,3.13h-.37l-2.79-3.12Zm2.38-.23c1.61,0,2.65-.8,2.65-2.14s-1-2.13-2.65-2.13H141.4v4.27Z"/><polygon points="148.39 147.36 148.39 138.88 154.23 138.88 154.23 139.74 149.27 139.74 149.27 142.7 153.77 142.7 153.77 143.55 149.27 143.55 149.27 146.51 154.23 146.51 154.23 147.36 148.39 147.36"/><path d="M149,143h4.5v.23H149v3.58h5v.23H148.7v-7.86h5.22v.24h-5Z"/><path d="M162.46,147.36l-1.3-2.82h-4.07l-1.31,2.82h-1l4-8.53h.66l4,8.53Zm-1.7-3.67-1.63-3.52-1.64,3.52Z"/><path d="M156.89,144.23l-1.31,2.82h-.27l3.68-7.91h.26l3.69,7.91h-.28l-1.3-2.82Zm2.24-4.79L157,144h4.24Z"/><path d="M164.41,147.36v-8.47h2.83a4.47,4.47,0,0,1,3.17,1.14,4,4,0,0,1,1.22,3,4.15,4.15,0,0,1-1.22,3.12,4.36,4.36,0,0,1-3.17,1.19Zm2.83-.85a3.53,3.53,0,0,0,2.55-.94,3.37,3.37,0,0,0,1-2.52,3.08,3.08,0,0,0-1-2.39,3.53,3.53,0,0,0-2.55-.93h-2v6.78Z"/><path d="M167.24,139.19a4.12,4.12,0,0,1,3,1.07,3.65,3.65,0,0,1,1.12,2.79,3.86,3.86,0,0,1-1.12,2.9,4.06,4.06,0,0,1-3,1.1h-2.52v-7.86Zm0,7.63a3.77,3.77,0,0,0,2.76-1,3.65,3.65,0,0,0,1.05-2.74,3.41,3.41,0,0,0-1.05-2.62,3.81,3.81,0,0,0-2.76-1H165v7.39Z"/><polygon points="174.86 147.36 174.86 144.18 171.25 138.88 172.29 138.88 175.3 143.3 178.31 138.88 179.35 138.88 175.74 144.18 175.74 147.36 174.86 147.36"/><path d="M175.43,144.08v3h-.26v-3l-3.34-4.89h.29l3.18,4.66,3.18-4.66h.28Z"/><path class="cls-1" d="M140,75.78V97.31a2.13,2.13,0,0,1-2.13,2.13H66L91.77,73.65h46.08A2.13,2.13,0,0,1,140,75.78Z"/><polyline class="cls-2" points="77.42 48.59 73.3 44.47 67.4 38.57"/><path class="cls-3" d="M67.16,38.22c-1.09-3.76-.79-3.54-.79-5.32a7.1,7.1,0,0,1,6.92-7.11h15.5a10,10,0,0,1-1.23,12.66L77.42,48.59l0,0-.14.15L67.29,38.64c0-.09-.05-.18-.08-.26h0Z"/><path class="cls-4" d="M87.56,38.45,77.42,48.59l0,0L73.3,44.47l-6.14-6.25c-1.09-3.76-.79-3.54-.79-5.32a7.1,7.1,0,0,1,6.92-7.11h15.5A10,10,0,0,1,87.56,38.45Z"/><path class="cls-5" d="M138.56,2.13v18.7A2.13,2.13,0,0,1,136.43,23H73.28a9.74,9.74,0,0,0-9.74,9.74h0l-2.3-2.3-3.17-3.17L53.7,22.86a13.72,13.72,0,0,1-4.1-8.5A13.24,13.24,0,0,1,62.53,0l1.28,0,.34,0L64.33,0h72.1A2.13,2.13,0,0,1,138.56,2.13Z"/><path class="cls-6" d="M109.83,51.59,63.37,98.05a13.14,13.14,0,0,1-12.16-9.33,13.43,13.43,0,0,1,2.91-12.83l.13-.13q.28-.3.57-.57L79.37,50.65l3.17-3.17,6.89-6.89.13-.13a12.88,12.88,0,0,0,3.68-10.52l7.92,7.93,3.08,3.07,5.58,5.59A3.58,3.58,0,0,1,109.83,51.59Z"/><path class="cls-2" d="M67.21,38.37s0-.1,0-.15"/><path class="cls-7" d="M11.69,130.29v2.37H0v-17H11.47V118H2.69v4.85H10.3v2.23H2.69v5.21Z"/><path class="cls-8" d="M27,118H21.31v14.66H18.6V118H12.91v-2.38H27Z"/><path class="cls-9" d="M40.94,130.29v2.37H29.26v-17H40.73V118H31.94v4.85h7.61v2.23H31.94v5.21Z"/><path class="cls-10" d="M43.73,132.66v-17h7.41a4.76,4.76,0,0,1,2.13.48,5.49,5.49,0,0,1,1.67,1.26A6.09,6.09,0,0,1,56,119.14a5.51,5.51,0,0,1,.39,2,5.68,5.68,0,0,1-.24,1.65,5.77,5.77,0,0,1-.67,1.47,5,5,0,0,1-1,1.16,4.42,4.42,0,0,1-1.37.73l4,6.48H54.05l-3.7-5.93H46.42v5.93Zm2.69-8.3h4.7a2.25,2.25,0,0,0,1-.25,2.46,2.46,0,0,0,.81-.7,3.79,3.79,0,0,0,.53-1,4,4,0,0,0,.19-1.22,3.36,3.36,0,0,0-.23-1.23,3.51,3.51,0,0,0-.6-1,3.11,3.11,0,0,0-.86-.68,2.2,2.2,0,0,0-1-.25H46.42Z"/><path class="cls-11" d="M62.28,120.66v12H59.59v-17H61.7l9.75,12.29V115.65h2.71v17H71.93Z"/><path class="cls-12" d="M78,132.66v-17h2.69v17Z"/><path class="cls-13" d="M97,118H91.37v14.66H88.66V118H83v-2.38H97Z"/><path class="cls-14" d="M100.56,115.62l4.7,8.55,4.76-8.55h3l-6.36,10.95v6.09h-2.69v-6.14l-6.31-10.9Z"/><path class="cls-15" d="M119.11,124a9.16,9.16,0,0,1,.55-3.06,8.48,8.48,0,0,1,1.62-2.73,8.26,8.26,0,0,1,2.61-2,7.8,7.8,0,0,1,3.48-.74,7.35,7.35,0,0,1,4,1,6.65,6.65,0,0,1,2.5,2.69l-2.11,1.41a4.71,4.71,0,0,0-.87-1.29,3.79,3.79,0,0,0-1.1-.84,4.8,4.8,0,0,0-1.25-.45,6.11,6.11,0,0,0-1.25-.13,4.91,4.91,0,0,0-2.35.54,5.2,5.2,0,0,0-1.69,1.43,6.28,6.28,0,0,0-1,2,7.08,7.08,0,0,0-.35,2.21,6.71,6.71,0,0,0,.41,2.37,6.35,6.35,0,0,0,1.14,2,5.6,5.6,0,0,0,1.74,1.38,4.78,4.78,0,0,0,2.2.51,5.81,5.81,0,0,0,1.29-.15,5.12,5.12,0,0,0,1.27-.51,5.17,5.17,0,0,0,1.13-.87,4.47,4.47,0,0,0,.85-1.28l2.23,1.28a5.12,5.12,0,0,1-1.15,1.69,7.26,7.26,0,0,1-1.68,1.23,8.06,8.06,0,0,1-2,.77,8.19,8.19,0,0,1-2.05.27A7.09,7.09,0,0,1,124,132a8.56,8.56,0,0,1-2.57-2,9.24,9.24,0,0,1-1.68-2.8A9,9,0,0,1,119.11,124Z"/><path class="cls-16" d="M141.38,115.62h2.36l6.72,17h-2.84l-1.8-4.63h-6.57l-1.78,4.63h-2.85ZM145.3,126l-2.74-7.32L139.73,126Z"/><path class="cls-17" d="M162.38,119.63a3.6,3.6,0,0,0-.69-.56,7.57,7.57,0,0,0-1.07-.57,8.42,8.42,0,0,0-1.34-.43,6.83,6.83,0,0,0-1.5-.17,4,4,0,0,0-2.51.63,2,2,0,0,0-.81,1.72,1.84,1.84,0,0,0,.26,1,2,2,0,0,0,.78.7,5.93,5.93,0,0,0,1.32.53c.52.15,1.14.31,1.84.49a20,20,0,0,1,2.34.7,6.41,6.41,0,0,1,1.77.93,3.75,3.75,0,0,1,1.11,1.36,4.29,4.29,0,0,1,.4,2,4.75,4.75,0,0,1-.49,2.24,4.21,4.21,0,0,1-1.35,1.52,5.75,5.75,0,0,1-2,.86,9.85,9.85,0,0,1-2.42.28,11.88,11.88,0,0,1-3.76-.59,10.74,10.74,0,0,1-3.27-1.71l1.22-2.31a6,6,0,0,0,.9.7,9.17,9.17,0,0,0,1.37.71,12.41,12.41,0,0,0,1.69.55,7.91,7.91,0,0,0,1.9.23,4.56,4.56,0,0,0,2.45-.56,2,2,0,0,0,.54-2.71,2.74,2.74,0,0,0-.93-.75,7.5,7.5,0,0,0-1.46-.59c-.58-.18-1.23-.36-2-.55a21,21,0,0,1-2.22-.71,5.58,5.58,0,0,1-1.57-.9,3.55,3.55,0,0,1-1-1.24,4,4,0,0,1-.32-1.71,4.81,4.81,0,0,1,1.78-3.86,5.75,5.75,0,0,1,2-1,8.34,8.34,0,0,1,2.45-.34,9.17,9.17,0,0,1,3.19.55,10.79,10.79,0,0,1,2.57,1.37Z"/><path class="cls-18" d="M179.35,118h-5.66v14.66H171V118h-5.69v-2.38h14.06Z"/></g></g></svg>